<?xml version="1.0" encoding="UTF-8" standalone="no"?><!DOCTYPE svg PUBLIC "-//W3C//DTD SVG 1.1//EN" "http://www.w3.org/Graphics/SVG/1.1/DTD/svg11.dtd"><svg width="100%" height="100%" viewBox="0 0 150 253" version="1.1" xmlns="http://www.w3.org/2000/svg" xmlns:xlink="http://www.w3.org/1999/xlink" xml:space="preserve" xmlns:serif="http://www.serif.com/" style="fill-rule:evenodd;clip-rule:evenodd;stroke-miterlimit:1;"><path d="M18.185,90.069l-8.843,111.234l17.356,-29.031l23.045,19.003l24.976,-48.317l18.652,13.54l10.795,-18.742l-5.458,-47.687l9.829,-28.912l-1.576,-16.314l-6.59,0l0.188,-16.967l-12.126,0.146l-0.012,16.933l-9.586,-0.059l-0.006,-16.888l-12.213,0.046l-0.281,16.901l-8.865,-0l0.116,-16.96l-11.936,0.032l-0.005,16.928l-8.151,-0l-0,-16.948l-11.784,0.029l-0.078,16.919l-8.216,-0l-0.168,-16.623l-11.294,0.009l-0.055,34.858l12.286,26.87Z" style="fill:none;stroke:#000;stroke-width:4.17px;"/><path d="M5.899,247.915l24.725,-43.539l21.362,15.292l21.649,-44.961l22.952,11.444l11.049,-17.65l9.134,79.712l-110.871,-0.298Zm7.147,-4.148l18.916,-33.309c-0,0 21.628,15.483 21.628,15.483l21.966,-45.62c0,-0 22.557,11.246 22.557,11.246l6.738,-10.765c0,0 7.246,63.232 7.246,63.232l-99.051,-0.267Z"/><path d="M40.936,248.213l101.006,-154.016l-40.116,0.778l36.394,-94.975l-86.454,118.996l42.792,-1.626l-53.622,130.843Z" style="fill:#ebebeb;"/><path d="M40.936,248.213l101.006,-154.016l-40.116,0.778l36.394,-94.975l-86.454,118.996l42.792,-1.626l-53.622,130.843Zm20.306,-38.561l39.626,-96.692l-40.69,1.546c-0,0 62.852,-86.509 62.852,-86.509c-0,-0 -27.308,71.264 -27.308,71.264l38.405,-0.745l-72.885,111.136Z"/></svg>