<?xml version="1.0" encoding="UTF-8" standalone="no"?><!DOCTYPE svg PUBLIC "-//W3C//DTD SVG 1.1//EN" "http://www.w3.org/Graphics/SVG/1.1/DTD/svg11.dtd"><svg width="100%" height="100%" viewBox="0 0 150 253" version="1.1" xmlns="http://www.w3.org/2000/svg" xmlns:xlink="http://www.w3.org/1999/xlink" xml:space="preserve" xmlns:serif="http://www.serif.com/" style="fill-rule:evenodd;clip-rule:evenodd;stroke-linejoin:round;stroke-miterlimit:2;"><path d="M37.65,24.697l-0.164,-0.004l-11.784,0.022c-1.825,0.005 -3.304,1.481 -3.313,3.306l-0.069,13.605c-0,-0 -1.61,0 -1.61,0c-0,0 -0.138,-13.328 -0.138,-13.328c-0.019,-1.824 -1.503,-3.292 -3.327,-3.291l-11.293,0.012c-1.832,0.002 -3.316,1.486 -3.319,3.317l-0,34.858c-0.001,0.47 0.1,0.935 0.295,1.363l12.415,26.811l-0,-1.299l2.842,-0c-0,-0 -1.465,9.701 -3.382,23.47c-0.671,4.816 -1.407,10.099 -2.105,15.658c-0.682,5.442 -1.396,11.107 -1.958,16.799c-2.769,28.033 -4.55,56.153 -4.55,56.153c-0.118,1.52 0.833,2.918 2.289,3.367c1.456,0.449 3.029,-0.172 3.787,-1.494l15.342,-26.768c-0,0 20.066,16.53 20.066,16.53c0.784,0.647 1.825,0.889 2.814,0.657c0.989,-0.233 1.813,-0.914 2.226,-1.842l18.898,-42.495c0,0 20.438,9.293 20.438,9.293c1.494,0.682 3.262,0.115 4.082,-1.308l10.779,-18.751c0.339,-0.588 0.48,-1.268 0.403,-1.942l-5.383,-46.786c0,-0 16.358,-34.113 16.358,-34.113c0.528,-1.101 0.368,-2.407 -0.409,-3.348l-8.5,-10.303c-0.596,-0.722 -1.483,-1.14 -2.419,-1.14l-3.412,-0.001c-0,-0 0.161,-13.794 0.161,-13.794c0.009,-0.849 -0.324,-1.665 -0.924,-2.265c-0.6,-0.599 -1.417,-0.932 -2.265,-0.921l-12.126,0.134c-1.732,0.021 -3.125,1.43 -3.126,3.161l-0.023,13.732c0,0 -3.22,-0.023 -3.22,-0.023c0,0 0.01,-13.723 0.01,-13.723c-0.001,-0.852 -0.34,-1.669 -0.944,-2.271c-0.605,-0.602 -1.423,-0.938 -2.276,-0.935l-12.213,0.034c-1.752,0.007 -3.178,1.414 -3.207,3.167l-0.243,13.712c0,0 -2.409,-0.003 -2.409,-0.003c-0,0 0.108,-13.693 0.108,-13.693c0.006,-0.872 -0.336,-1.71 -0.952,-2.327c-0.615,-0.618 -1.451,-0.964 -2.323,-0.961l-11.936,0.02c-1.807,0.005 -3.269,1.471 -3.27,3.278l-0.018,13.628c-0,0 -1.554,-0.001 -1.554,-0.001c0,-0 0.009,-13.647 0.009,-13.647c-0,-0.88 -0.35,-1.724 -0.974,-2.346c-0.584,-0.583 -1.363,-0.925 -2.184,-0.964Zm-19.465,65.372l-0,-1.3l2.842,0l-11.86,-26.268c0,-0 0.099,-30.84 0.099,-30.84c-0,0 4.69,-0.003 4.69,-0.003c0,0 0.132,13.33 0.132,13.33c0.019,1.825 1.503,3.294 3.328,3.294l8.216,0.002c1.833,0 3.321,-1.481 3.33,-3.314l0.056,-13.623c-0,0 5.164,-0.016 5.164,-0.016c0,0 0.008,13.624 0.008,13.624c0,1.824 1.479,3.303 3.304,3.303l8.151,-0.006c1.82,-0 3.296,-1.476 3.297,-3.296l-0.011,-13.662c0,-0 5.37,-0.021 5.37,-0.021c0,0 -0.078,13.66 -0.078,13.66c-0.006,0.865 0.333,1.697 0.943,2.31c0.61,0.614 1.439,0.96 2.304,0.96l8.865,-0.01c1.767,0 3.208,-1.417 3.238,-3.184l0.213,-13.75c0,-0 5.84,-0.029 5.84,-0.029c-0,0 0.019,13.667 0.019,13.667c0.001,1.754 1.417,3.178 3.17,3.189l9.587,0.049c0.846,0.005 1.66,-0.328 2.26,-0.924c0.601,-0.596 0.939,-1.408 0.939,-2.254l-0.004,-13.812c0,-0 5.777,-0.076 5.777,-0.076c-0,0 -0.143,13.74 -0.143,13.74c-0.009,0.839 0.318,1.646 0.907,2.243c0.59,0.596 1.394,0.932 2.233,0.932l5.113,-0.003c0,0 6.293,7.612 6.293,7.612c-0,0 -15.9,33.117 -15.9,33.117c-0.256,0.534 -0.356,1.128 -0.289,1.716l5.312,46.651c0,0 -8.84,15.32 -8.84,15.32c-0,-0 -20.734,-9.474 -20.734,-9.474c-0.779,-0.355 -1.667,-0.385 -2.468,-0.082c-0.8,0.303 -1.446,0.914 -1.795,1.695l-18.546,41.509c0,0 -19.741,-16.293 -19.741,-16.293c-0.743,-0.612 -1.718,-0.866 -2.664,-0.693c-0.947,0.173 -1.77,0.754 -2.248,1.59l-9.912,17.312c0.883,-10.768 2.055,-26.117 2.931,-41.486c0.326,-5.711 0.498,-11.418 0.666,-16.901c0.171,-5.6 0.262,-10.933 0.345,-15.795c0.237,-13.899 0.291,-23.71 0.291,-23.71Z"/><path d="M2.142,248.199l114.628,1.916c0.542,0 1.059,-0.231 1.42,-0.636c0.361,-0.404 0.532,-0.944 0.47,-1.482c0,-0 -4.88,-51.666 -7.006,-71.881c-0.517,-4.92 -0.899,-7.972 -0.899,-7.972c-0.152,-1.326 -1.125,-2.411 -2.426,-2.705c-1.301,-0.295 -2.647,0.265 -3.355,1.396l-9.542,15.185c0,-0 -20.358,-10.199 -20.358,-10.199c-0.773,-0.385 -1.667,-0.445 -2.484,-0.165c-0.816,0.279 -1.487,0.874 -1.861,1.652l-19.799,40.967c-0,-0 -18.612,-16.782 -18.612,-16.782c-0.732,-0.662 -1.723,-0.957 -2.698,-0.804c-0.975,0.152 -1.829,0.737 -2.323,1.59c-0,0 -5.407,8.96 -11.081,19.378c-0.881,1.617 -1.72,3.288 -2.569,4.961c-0.637,1.253 -1.272,2.497 -1.869,3.754c-1.479,3.111 -2.812,6.141 -4.052,8.939c-3.284,7.41 -5.577,12.873 -5.584,12.888l0,0Zm103.419,-70.436c2.277,18.247 7.74,58.931 9.039,68.584l-112.458,1.852c0.011,-0.013 3.611,-4.718 8.408,-11.251c1.812,-2.467 3.779,-5.129 5.743,-7.959c0.794,-1.143 1.558,-2.313 2.329,-3.488c1.029,-1.568 2.061,-3.127 3.027,-4.695c3.851,-6.255 7.268,-12.142 9.311,-15.72c0.001,-0 18.815,17.029 18.815,17.029c0.771,0.697 1.826,0.99 2.846,0.79c1.02,-0.201 1.886,-0.87 2.336,-1.806l20.172,-42.05c0,-0 20.041,9.945 20.041,9.945c1.464,0.729 3.242,0.229 4.11,-1.158l6.281,-10.073Z"/><path d="M46.958,232.07l95.798,-141.729l-40.117,0.778l30.23,-87.375l-80.29,111.396l42.793,-1.626l-48.414,118.556Z" style="fill:#ebebeb;"/><path d="M46.958,232.07c0.011,-0.013 5.266,-6.59 13.354,-16.99c2.666,-3.427 5.63,-7.235 8.781,-11.409c2.924,-3.873 6.044,-7.989 9.169,-12.386c8.724,-12.274 17.95,-26.262 26.985,-39.575c21.197,-31.237 40.211,-59.543 40.211,-59.543c0.682,-1.009 0.745,-2.314 0.163,-3.384c-0.582,-1.07 -1.711,-1.727 -2.929,-1.703l-35.514,0.732c0,0 28.646,-83.045 28.646,-83.045c0.508,-1.467 -0.137,-3.084 -1.514,-3.799c-1.378,-0.715 -3.071,-0.312 -3.978,0.947l-80.393,111.322c-0.727,1.009 -0.815,2.344 -0.228,3.44c0.588,1.096 1.749,1.762 2.992,1.715l37.68,-1.397c-2.861,6.978 -8.574,20.933 -15.005,36.768c-5.502,13.547 -11.853,28.343 -16.789,41.559c-1.415,3.788 -2.616,7.462 -3.752,10.917c-1.226,3.732 -2.276,7.183 -3.231,10.3c-2.901,9.467 -4.643,15.514 -4.648,15.531l0,0Zm0,0c0.009,-0.015 2.998,-5.553 7.552,-14.345c1.5,-2.895 3.167,-6.094 4.903,-9.617c1.608,-3.263 3.321,-6.727 4.963,-10.423c5.725,-12.893 11.547,-27.906 17.1,-41.431c9.295,-22.64 16.945,-41.495 16.945,-41.495c0.424,-1.036 0.291,-2.217 -0.35,-3.134c-0.642,-0.917 -1.706,-1.445 -2.824,-1.403l-36.133,1.406c0,0 63.769,-88.647 63.769,-88.647c0,-0 -23.28,67.088 -23.28,67.088c-0.343,0.992 -0.18,2.09 0.438,2.939c0.617,0.85 1.611,1.344 2.661,1.323l33.818,-0.615c-6.49,9.558 -21.083,31.075 -36.725,54.309c-8.986,13.346 -18.525,27.122 -26.663,39.793c-2.915,4.539 -5.57,8.969 -8.074,13.126c-2.698,4.479 -5.127,8.65 -7.313,12.401c-6.379,10.943 -10.455,18.138 -10.767,18.691l-0.02,0.034Z"/></svg>