<?xml version="1.0" encoding="UTF-8" standalone="no"?><!DOCTYPE svg PUBLIC "-//W3C//DTD SVG 1.1//EN" "http://www.w3.org/Graphics/SVG/1.1/DTD/svg11.dtd"><svg width="100%" height="100%" viewBox="0 0 455 782" version="1.1" xmlns="http://www.w3.org/2000/svg" xmlns:xlink="http://www.w3.org/1999/xlink" xml:space="preserve" xmlns:serif="http://www.serif.com/" style="fill-rule:evenodd;clip-rule:evenodd;stroke-linecap:round;stroke-linejoin:round;stroke-miterlimit:1.5;"><g id="TOWER-ND-LIGHTNIN" serif:id="TOWER ND LIGHTNIN"><path id="a" d="M105.601,484.627l-38.714,67.374l-25.745,66.673l38.91,-2.114l-65.34,50.711l9.381,-478.025l-22.53,-30.348l16.913,-103.951c5.905,-4.482 7.68,-4.228 13.754,-7.842c2.715,-1.614 8.748,-0.164 11.527,-1.757c16.077,-9.214 29.814,-20.899 46.142,-26.326c1.756,-0.584 9.442,4.766 11.819,3.872c14.796,-5.568 32.349,-22.822 57.005,-21.228c2.083,0.135 3.729,13.967 5.906,12.475c2.449,-1.678 4.365,-12.9 6.829,-12.475c19.817,3.417 40.73,18.848 49.547,20.883c8.865,2.046 13.9,-7.347 17.68,-7.126c-0.012,0.054 21.305,21.3 36.271,28.864c7.959,4.023 9.701,-5.566 15.245,-2.756c4.617,2.34 7.596,3.858 7.604,3.885l28.645,94.825l-189.351,222.561l-5.859,14.623l-25.639,107.202Z" style="fill:#4f4f4f;stroke:#4f4f4f;stroke-width:3.13px;"/><path d="M1.563,159.98l18.134,-105.026l12.842,-8.159l4.419,64.947l7.19,-72.001l30.306,-19.089l15.126,-1.701l-0.906,71.543l9.053,-9.805l-0.567,-65.027l24.641,-13.37l36.521,-0.626l-0.815,75.229l13.619,0.171l0.275,-74.478l41.262,3.672l18.387,13.335l-1.417,64.063l10.494,7.995l-1.395,-76.193l28.151,9.24l15.25,12.351l4.821,68.603l1.827,-63.977l12.78,4.048l32.472,113.584l-29.226,33.916l2.961,91.466c-137.196,31.564 -167.753,58.598 -164.266,101.406l-40.489,54.338l60.629,-6.25l-107.99,168.978l65.925,-19.606l-120.015,180.209l22.352,-573.205l-22.352,-30.581Z" style="fill:#ada496;"/><path d="M2.799,159.309c0,0 140.641,-98.315 331.234,0" style="fill:none;stroke:#4f4f4f;stroke-width:3.13px;"/><path d="M24.761,190.591c-0,0 144.3,-63.436 280.507,1.624" style="fill:none;stroke:#4f4f4f;stroke-width:3.13px;"/><path d="M1.563,763.766c-0,-0 1.452,-28.241 3.621,-72.193c0.715,-14.487 1.521,-30.678 2.336,-48.131c0.758,-16.225 1.553,-33.536 2.314,-51.577c2.127,-50.449 4.224,-106.585 6.337,-160.494c4.958,-126.489 9.368,-240.747 9.368,-240.747c0.015,-0.366 -0.095,-0.727 -0.312,-1.023l-21.952,-30.022c-0,-0 17.877,-103.656 17.877,-103.656c-0,0 9.977,-6.341 9.977,-6.341c-0,-0 4.248,62.268 4.248,62.268c0.056,0.822 0.732,1.464 1.556,1.477c0.823,0.013 1.52,-0.608 1.601,-1.427l7.103,-71.239c-0,0 29.349,-18.491 29.349,-18.491c0,0 13.005,-1.463 13.005,-1.463c-0.001,0 -0.879,69.767 -0.879,69.767c-0.008,0.647 0.383,1.232 0.984,1.472c0.601,0.239 1.288,0.083 1.727,-0.392l9.053,-9.805c0.269,-0.292 0.418,-0.676 0.414,-1.074l-0.554,-64.084c0,0 23.476,-12.735 23.476,-12.735c0,-0 34.516,-0.587 34.516,-0.587c0,0 -0.81,73.609 -0.81,73.609c-0.009,0.876 0.693,1.595 1.569,1.606l13.619,0.173c0.424,0.005 0.833,-0.159 1.135,-0.457c0.303,-0.298 0.474,-0.704 0.475,-1.128l0.283,-72.731c0,0 39.077,3.486 39.077,3.486c0,-0 17.339,12.579 17.339,12.579c-0,-0 -1.41,63.216 -1.41,63.216c-0.012,0.521 0.227,1.016 0.641,1.332l10.492,7.997c0.498,0.379 1.169,0.44 1.727,0.157c0.558,-0.283 0.905,-0.86 0.894,-1.485l-1.342,-73.881c-0,0 25.665,8.427 25.665,8.427c-0,0 14.456,11.712 14.456,11.712c0,-0 4.771,67.889 4.771,67.889c0.061,0.877 0.8,1.552 1.68,1.534c0.879,-0.018 1.589,-0.723 1.615,-1.602l1.761,-61.796c-0,-0 9.86,3.119 9.86,3.119c-0,-0 32.059,111.898 32.059,111.898c-1.238,1.431 -4.414,5.109 -8.199,9.544c-8.562,10.031 -20.263,23.91 -20.263,23.91c-0.213,0.247 -0.325,0.564 -0.315,0.89c0,0 1.021,22.856 2.086,45.714c1.065,22.859 2.175,45.71 2.175,45.71c0,0 -0.37,-22.875 -0.786,-45.755c-0.379,-20.854 -0.795,-41.704 -0.865,-45.231c1.972,-2.241 12.512,-14.219 20.329,-23.204c4.938,-5.676 8.78,-10.164 8.78,-10.164c0.346,-0.402 0.467,-0.951 0.321,-1.461l-32.407,-113.603c-0.151,-0.529 -0.558,-0.948 -1.083,-1.114l-12.779,-4.052c-0.493,-0.156 -1.03,-0.072 -1.451,0.228c-0.422,0.299 -0.678,0.779 -0.693,1.295l-0.875,30.613c0,-0 -2.482,-35.307 -2.482,-35.307c-0.032,-0.456 -0.252,-0.878 -0.607,-1.166l-15.251,-12.35c-0.155,-0.126 -0.333,-0.222 -0.523,-0.284l-28.152,-9.237c-0.505,-0.166 -1.06,-0.076 -1.488,0.24c-0.428,0.316 -0.676,0.819 -0.667,1.351l1.345,72.822c-0,0 -7.154,-5.448 -7.154,-5.448c0,0 1.387,-63.234 1.387,-63.234c0.011,-0.53 -0.238,-1.033 -0.668,-1.344l-18.389,-13.331c-0.236,-0.171 -0.514,-0.275 -0.804,-0.301l-41.262,-3.665c-0.448,-0.04 -0.892,0.11 -1.224,0.413c-0.332,0.302 -0.522,0.73 -0.523,1.18l-0.256,72.874c-0,-0 -10.429,-0.129 -10.429,-0.129c-0,-0 0.786,-73.644 0.786,-73.644c0.005,-0.425 -0.163,-0.835 -0.465,-1.135c-0.302,-0.3 -0.712,-0.465 -1.138,-0.458l-36.521,0.632c-0.252,0.004 -0.5,0.069 -0.722,0.19l-24.64,13.372c-0.51,0.276 -0.826,0.812 -0.821,1.392l0.567,64.407c-0,0 -5.869,6.359 -5.869,6.359c-0,-0 0.859,-67.471 0.859,-67.471c0.006,-0.45 -0.182,-0.881 -0.515,-1.182c-0.334,-0.302 -0.781,-0.446 -1.228,-0.396l-15.126,1.7c-0.235,0.026 -0.461,0.105 -0.661,0.231l-30.308,19.086c-0.41,0.258 -0.678,0.692 -0.726,1.174l-5.324,53.215c0,0 -3.129,-46.112 -3.129,-46.112c-0.038,-0.562 -0.37,-1.062 -0.872,-1.316c-0.502,-0.254 -1.101,-0.225 -1.576,0.077l-12.844,8.156c-0.38,0.242 -0.641,0.633 -0.718,1.078l-18.154,105.023c-0.075,0.432 0.029,0.876 0.288,1.23l22.012,30.128c-0.346,8.792 -4.679,118.857 -9.385,240.179c-2.091,53.911 -4.372,110.039 -6.18,160.501c-0.646,18.045 -1.201,35.366 -1.709,51.6c-0.547,17.464 -1.004,33.668 -1.419,48.167c-1.26,43.988 -2.011,72.256 -2.011,72.256Z" style="fill:#4f4f4f;"/><path d="M353.097,159.309l-233.01,268.056l110.015,-39.936l-140.279,189.793l83.612,-42.887l-165.446,245.205l271.33,-298.168l-67.013,13.262l150.193,-181.967l-65.882,14.877l156.38,-168.235l-99.9,0Z" style="fill:#00b8f2;stroke:#ebebeb;stroke-width:3.13px;"/><text x="63.191px" y="571.648px" style="font-family:'Eczar-ExtraBold', 'Eczar';font-weight:800;font-size:410.68px;fill:#363636;">&amp;</text><path d="M161.49,480.446c-3.086,4.005 -72.508,97.169 -72.033,97.313c0.758,0.231 82.974,-42.091 82.974,-42.091l-164.442,243.872c-0,0 273.435,-302.041 271.011,-297.845c-3.092,0.001 -63.088,12.431 -66.765,13.001" style="fill:#00b8f2;stroke:#ebebeb;stroke-width:3.13px;"/><path d="M154.47,387.864c-3.097,3.847 -30.859,35.629 -34.102,39.125c-0.263,0.283 44.965,-15.972 53.385,-19.128" style="fill:#00b8f2;stroke:#ebebeb;stroke-width:3.13px;"/></g></svg>